<?xml version="1.0" standalone="no"?>
<!DOCTYPE svg PUBLIC "-//W3C//DTD SVG 20010904//EN"
 "http://www.w3.org/TR/2001/REC-SVG-20010904/DTD/svg10.dtd">
<svg version="1.0" xmlns="http://www.w3.org/2000/svg"
 width="2074.000000pt" height="918.000000pt" viewBox="0 0 2074.000000 918.000000"
 preserveAspectRatio="xMidYMid meet">
<metadata>
Created by potrace 1.16, written by Peter Selinger 2001-2019
</metadata>
<g transform="translate(0.000000,918.000000) scale(0.100000,-0.100000)"
fill="#000000" stroke="none">
<path d="M0 7536 c0 -1634 0 -1645 20 -1641 11 2 22 -1 25 -6 4 -5 12 -6 18
-2 17 11 57 11 63 1 3 -4 11 -5 17 -1 17 11 57 11 63 1 3 -4 11 -5 17 -1 17
11 57 11 63 1 3 -4 11 -5 17 -1 17 11 57 11 63 1 3 -4 11 -5 17 -1 17 11 57
11 63 1 3 -4 11 -5 17 -1 17 11 57 11 63 1 3 -4 11 -5 17 -1 17 11 57 11 63 1
3 -4 11 -5 17 -1 17 11 57 11 63 1 3 -4 11 -5 17 -1 17 11 57 11 63 1 3 -4 11
-5 17 -1 17 11 57 11 63 1 3 -4 11 -5 17 -1 17 11 57 11 63 1 3 -4 11 -5 17
-1 17 11 57 11 63 1 3 -4 11 -5 17 -1 17 11 57 11 63 1 3 -4 11 -5 17 -1 17
11 57 11 63 1 3 -4 11 -5 17 -1 17 11 57 11 63 1 3 -4 11 -5 17 -1 17 11 57
11 63 1 3 -4 11 -5 17 -1 17 11 57 11 63 1 3 -4 11 -5 17 -1 17 11 57 11 63 1
3 -4 11 -5 17 -1 17 11 57 11 63 1 3 -4 11 -5 17 -1 17 11 57 11 63 1 3 -4 11
-5 17 -1 17 11 57 11 63 1 3 -4 11 -5 17 -1 17 11 57 11 63 1 3 -4 11 -5 17
-1 17 11 57 11 63 1 3 -4 11 -5 17 -1 17 11 57 11 63 1 3 -4 11 -5 17 -1 17
11 57 11 63 1 3 -4 11 -5 17 -1 17 11 57 11 63 1 3 -4 11 -5 17 -1 17 11 57
11 63 1 3 -4 11 -5 17 -1 17 11 57 11 63 1 3 -4 11 -5 17 -1 17 11 57 11 63 1
3 -4 11 -5 17 -1 17 11 57 11 63 1 3 -4 11 -5 17 -1 17 11 57 11 63 1 3 -4 11
-5 17 -1 17 11 57 11 63 1 3 -4 11 -5 17 -1 17 11 57 11 63 1 3 -4 11 -5 17
-1 17 11 57 11 63 1 3 -4 11 -5 17 -1 17 11 57 11 63 1 3 -4 11 -5 17 -1 17
11 57 11 63 1 3 -4 11 -5 17 -1 17 11 57 11 63 1 3 -4 11 -5 17 -1 17 11 57
11 63 1 3 -4 11 -5 17 -1 17 11 57 11 63 1 3 -4 11 -5 17 -1 17 11 57 11 63 1
3 -4 11 -5 17 -1 17 11 57 11 63 1 3 -4 11 -5 17 -1 17 11 57 11 63 1 3 -4 11
-5 17 -1 17 11 57 11 63 1 3 -4 11 -5 17 -1 17 11 57 11 63 1 3 -4 11 -5 17
-1 17 11 57 11 63 1 3 -4 11 -5 17 -1 17 11 57 11 63 1 3 -4 11 -5 17 -1 17
11 57 11 63 1 3 -4 11 -5 17 -1 17 11 57 11 63 1 3 -4 11 -5 17 -1 17 11 57
11 63 1 3 -4 11 -5 17 -1 17 11 57 11 63 1 3 -4 11 -5 17 -1 17 11 57 11 63 1
3 -4 11 -5 17 -1 17 11 57 11 63 1 3 -4 11 -5 17 -1 17 11 57 11 63 1 3 -4 11
-5 17 -1 17 11 57 11 63 1 3 -4 11 -5 17 -1 17 11 57 11 63 1 3 -4 11 -5 17
-1 17 11 57 11 63 1 3 -4 11 -5 17 -1 17 11 57 11 63 1 3 -4 11 -5 17 -1 17
11 57 11 63 1 3 -4 11 -5 17 -1 17 11 57 11 63 1 3 -4 11 -5 17 -1 17 11 57
11 63 1 3 -4 11 -5 17 -1 17 11 57 11 63 1 3 -4 11 -5 17 -1 17 11 57 11 63 1
3 -4 11 -5 17 -1 17 11 57 11 63 1 3 -4 11 -5 17 -1 17 11 57 11 63 1 3 -4 11
-5 17 -1 17 11 57 11 63 1 3 -4 11 -5 17 -1 17 11 57 11 63 1 3 -4 11 -5 17
-1 17 11 57 11 63 1 3 -4 11 -5 17 -1 17 11 57 11 63 1 3 -4 11 -5 17 -1 17
11 57 11 63 1 3 -4 11 -5 17 -1 17 11 57 11 63 1 3 -4 11 -5 17 -1 17 11 57
11 63 1 3 -4 11 -5 17 -1 17 11 57 11 63 1 3 -4 11 -5 17 -1 17 11 57 11 63 1
3 -4 11 -5 17 -1 17 11 57 11 63 1 3 -4 11 -5 17 -1 17 11 57 11 63 1 3 -4 11
-5 17 -1 17 11 57 11 63 1 3 -4 11 -5 17 -1 17 11 57 11 63 1 3 -4 11 -5 17
-1 17 11 57 11 63 1 3 -4 11 -5 17 -1 17 11 57 11 63 1 3 -4 11 -5 17 -1 17
11 57 11 63 1 3 -4 11 -5 17 -1 17 11 57 11 63 1 3 -4 11 -5 17 -1 17 11 57
11 63 1 3 -4 11 -5 17 -1 17 11 57 11 63 1 3 -4 11 -5 17 -1 17 11 57 11 63 1
3 -4 11 -5 17 -1 17 11 57 11 63 1 3 -4 11 -5 17 -1 17 11 57 11 63 1 3 -4 11
-5 17 -1 17 11 57 11 63 1 3 -4 11 -5 17 -1 17 11 57 11 63 1 3 -4 11 -5 17
-1 17 11 57 11 63 1 3 -4 11 -5 17 -1 17 11 57 11 63 1 3 -4 11 -5 17 -1 17
11 57 11 63 1 3 -4 11 -5 17 -1 17 11 57 11 63 1 3 -4 11 -5 17 -1 17 11 57
11 63 1 3 -4 11 -5 17 -1 17 11 57 11 63 1 3 -4 11 -5 17 -1 17 11 57 11 63 1
3 -4 11 -5 17 -1 17 11 57 11 63 1 3 -4 11 -5 17 -1 17 11 57 11 63 1 3 -4 11
-5 17 -1 17 11 57 11 63 1 3 -4 11 -5 17 -1 17 11 57 11 63 1 3 -4 11 -5 17
-1 17 11 57 11 63 1 3 -4 11 -5 17 -1 17 11 57 11 63 1 3 -4 11 -5 17 -1 17
11 57 11 63 1 3 -4 11 -5 17 -1 17 11 57 11 63 1 3 -4 11 -5 17 -1 17 11 57
11 63 1 3 -4 11 -5 17 -1 17 11 57 11 63 1 3 -4 11 -5 17 -1 17 11 57 11 63 1
3 -4 11 -5 17 -1 17 11 57 11 63 1 3 -4 11 -5 17 -1 17 11 57 11 63 1 3 -4 11
-5 17 -1 17 11 57 11 63 1 3 -4 11 -5 17 -1 17 11 57 11 63 1 3 -4 11 -5 17
-1 17 11 57 11 63 1 3 -4 11 -5 17 -1 17 11 57 11 63 1 3 -4 11 -5 17 -1 17
11 57 11 63 1 3 -4 11 -5 17 -1 17 11 57 11 63 1 3 -4 11 -5 17 -1 17 11 57
11 63 1 3 -4 11 -5 17 -1 17 11 57 11 63 1 3 -4 11 -5 17 -1 17 11 57 11 63 1
3 -4 11 -5 17 -1 17 11 57 11 63 1 3 -4 11 -5 17 -1 17 11 57 11 63 1 3 -4 11
-5 17 -1 17 11 57 11 63 1 3 -4 11 -5 17 -1 17 11 57 11 63 1 3 -4 11 -5 17
-1 17 11 57 11 63 1 3 -4 11 -5 17 -1 17 11 57 11 63 1 3 -4 11 -5 17 -1 17
11 57 11 63 1 3 -4 11 -5 17 -1 17 11 57 11 63 1 3 -4 11 -5 17 -1 17 11 57
11 63 1 3 -4 11 -5 17 -1 17 11 57 11 63 1 3 -4 11 -5 17 -1 17 11 57 11 63 1
3 -4 11 -5 17 -1 17 11 57 11 63 1 3 -4 11 -5 17 -1 17 11 57 11 63 1 3 -4 11
-5 17 -1 17 11 57 11 63 1 3 -4 11 -5 17 -1 17 11 57 11 63 1 3 -4 11 -5 17
-1 17 11 57 11 63 1 3 -4 11 -5 17 -1 17 11 57 11 63 1 3 -4 11 -5 17 -1 17
11 57 11 63 1 3 -4 11 -5 17 -1 17 11 57 11 63 1 3 -4 11 -5 17 -1 17 11 57
11 63 1 3 -4 11 -5 17 -1 17 11 57 11 63 1 3 -4 11 -5 17 -1 17 11 57 11 63 1
3 -4 11 -5 17 -1 17 11 57 11 63 1 3 -4 11 -5 17 -1 17 11 57 11 63 1 3 -4 11
-5 17 -1 17 11 57 11 63 1 3 -4 11 -5 17 -1 17 11 57 11 63 1 3 -4 11 -5 17
-1 17 11 57 11 63 1 3 -4 11 -5 17 -1 17 11 57 11 63 1 3 -4 11 -5 17 -1 17
11 57 11 63 1 3 -4 11 -5 17 -1 17 11 57 11 63 1 3 -4 11 -5 17 -1 17 11 57
11 63 1 3 -4 11 -5 17 -1 17 11 57 11 63 1 3 -4 11 -5 17 -1 17 11 57 11 63 1
3 -4 11 -5 17 -1 17 11 57 11 63 1 3 -4 11 -5 17 -1 17 11 57 11 63 1 3 -4 11
-5 17 -1 17 11 57 11 63 1 3 -4 11 -5 17 -1 17 11 57 11 63 1 3 -4 11 -5 17
-1 17 11 57 11 63 1 3 -4 11 -5 17 -1 17 11 57 11 63 1 3 -4 11 -5 17 -1 17
11 57 11 63 1 3 -4 11 -5 17 -1 17 11 57 11 63 1 3 -4 11 -5 17 -1 17 11 57
11 63 1 3 -4 11 -5 17 -1 17 11 57 11 63 1 3 -4 11 -5 17 -1 17 11 57 11 63 1
3 -4 11 -5 17 -1 17 11 57 11 63 1 3 -4 11 -5 17 -1 17 11 57 11 63 1 3 -4 11
-5 17 -1 17 11 57 11 63 1 3 -4 11 -5 17 -1 17 11 57 11 63 1 3 -4 11 -5 17
-1 17 11 57 11 63 1 3 -4 11 -5 17 -1 17 11 57 11 63 1 3 -4 11 -5 17 -1 17
11 57 11 63 1 3 -4 11 -5 17 -1 17 11 57 11 63 1 3 -4 11 -5 17 -1 17 11 57
11 63 1 3 -4 11 -5 17 -1 17 11 57 11 63 1 3 -4 11 -5 17 -1 17 11 57 11 63 1
3 -4 11 -5 17 -1 17 11 57 11 63 1 3 -4 11 -5 17 -1 17 11 57 11 63 1 3 -4 11
-5 17 -1 17 11 57 11 63 1 3 -4 11 -5 17 -1 17 11 57 11 63 1 3 -4 11 -5 17
-1 17 11 57 11 63 1 3 -4 11 -5 17 -1 17 11 57 11 63 1 3 -4 11 -5 17 -1 17
11 57 11 63 1 3 -4 11 -5 17 -1 17 11 57 11 63 1 3 -4 11 -5 17 -1 17 11 57
11 63 1 3 -4 11 -5 17 -1 17 11 57 11 63 1 3 -4 11 -5 17 -1 17 11 57 11 63 1
3 -4 11 -5 17 -1 17 11 57 11 63 1 3 -4 11 -5 17 -1 17 11 57 11 63 1 3 -4 11
-5 17 -1 17 11 57 11 63 1 3 -4 11 -5 17 -1 17 11 57 11 63 1 3 -4 11 -5 17
-1 17 11 57 11 63 1 3 -4 11 -5 17 -1 17 11 57 11 63 1 3 -4 11 -5 17 -1 17
11 57 11 63 1 3 -4 11 -5 17 -1 17 11 57 11 63 1 3 -4 11 -5 17 -1 17 11 57
11 63 1 3 -4 11 -5 17 -1 17 11 57 11 63 1 3 -4 11 -5 17 -1 17 11 57 11 63 1
3 -4 11 -5 17 -1 17 11 57 11 63 1 3 -4 11 -5 17 -1 17 11 57 11 63 1 3 -4 11
-5 17 -1 17 11 57 11 63 1 3 -4 11 -5 17 -1 17 11 57 11 63 1 3 -4 11 -5 17
-1 17 11 57 11 63 1 3 -4 11 -5 17 -1 17 11 57 11 63 1 3 -4 11 -5 17 -1 17
11 57 11 63 1 3 -4 11 -5 17 -1 17 11 57 11 63 1 3 -4 11 -5 17 -1 17 11 57
11 63 1 3 -4 11 -5 17 -1 17 11 57 11 63 1 3 -4 11 -5 17 -1 17 11 57 11 63 1
3 -4 11 -5 17 -1 17 11 57 11 63 1 3 -4 11 -5 17 -1 17 11 57 11 63 1 3 -4 11
-5 17 -1 17 11 57 11 63 1 3 -4 11 -5 17 -1 17 11 57 11 63 1 3 -4 11 -5 17
-1 17 11 57 11 63 1 3 -4 11 -5 17 -1 17 11 57 11 63 1 3 -4 11 -5 17 -1 17
11 57 11 63 1 3 -4 11 -5 17 -1 17 11 57 11 63 1 3 -4 11 -5 17 -1 17 11 57
11 63 1 3 -4 11 -5 17 -1 17 11 57 11 63 1 3 -4 11 -5 17 -1 17 11 57 11 63 1
3 -4 11 -5 17 -1 17 11 57 11 63 1 3 -4 11 -5 17 -1 17 11 57 11 63 1 3 -4 11
-5 17 -1 17 11 57 11 63 1 3 -4 11 -5 17 -1 17 11 57 11 63 1 3 -4 11 -5 17
-1 17 11 57 11 63 1 3 -4 11 -5 17 -1 17 11 57 11 63 1 3 -4 11 -5 17 -1 17
11 57 11 63 1 3 -4 11 -5 17 -1 17 11 57 11 63 1 3 -4 11 -5 17 -1 17 11 57
11 63 1 3 -4 11 -5 17 -1 17 11 57 11 63 1 3 -4 11 -5 17 -1 17 11 57 11 63 1
3 -4 11 -5 17 -1 17 11 57 11 63 1 3 -4 11 -5 17 -1 17 11 57 11 63 1 3 -4 11
-5 17 -1 17 11 57 11 63 1 3 -4 11 -5 17 -1 17 11 57 11 63 1 3 -4 11 -5 17
-1 17 11 57 11 63 1 3 -4 11 -5 17 -1 17 11 57 11 63 1 3 -4 11 -5 17 -1 17
11 57 11 63 1 3 -4 11 -5 17 -1 17 11 57 11 63 1 3 -4 11 -5 17 -1 17 11 57
11 63 1 3 -4 11 -5 17 -1 17 11 57 11 63 1 3 -4 11 -5 17 -1 17 11 57 11 63 1
3 -4 11 -5 17 -1 17 11 57 11 63 1 3 -4 11 -5 17 -1 17 11 57 11 63 1 3 -4 11
-5 17 -1 17 11 57 11 63 1 3 -4 11 -5 17 -1 17 11 57 11 63 1 3 -4 11 -5 17
-1 17 11 57 11 63 1 3 -4 11 -5 17 -1 17 11 57 11 63 1 3 -4 11 -5 17 -1 17
11 57 11 63 1 3 -4 11 -5 17 -1 17 11 57 11 63 1 3 -4 11 -5 17 -1 17 11 57
11 63 1 3 -4 11 -5 17 -1 17 11 57 11 63 1 3 -4 11 -5 17 -1 17 11 57 11 63 1
3 -4 11 -5 17 -1 17 11 57 11 63 1 3 -4 11 -5 17 -1 17 11 57 11 63 1 3 -4 11
-5 17 -1 17 11 57 11 63 1 3 -4 11 -5 17 -1 17 11 57 11 63 1 3 -4 11 -5 17
-1 17 11 57 11 63 1 3 -4 11 -5 17 -1 17 11 57 11 63 1 3 -4 11 -5 17 -1 17
11 57 11 63 1 3 -4 11 -5 17 -1 17 11 57 11 63 1 3 -4 11 -5 17 -1 17 11 57
11 63 1 3 -4 11 -5 17 -1 7 4 17 8 22 8 7 0 11 556 13 1643 l2 1642 -10370 0
-10370 0 0 -1644z"/>
</g>
</svg>
